<svg width="1470" height="382" viewBox="0 0 1470 382" fill="none" xmlns="http://www.w3.org/2000/svg">
<rect width="363" height="365" fill="white"/>
<rect x="22" y="33" width="270" height="270" fill="#FFC702"/>
<path d="M67.76 127.4H82.32L178.92 270.76C194.787 246.493 210.747 222.507 226.8 198.8C243.04 175.093 259.373 151.293 275.8 127.4H290.36V292.6H273V162.68L185.92 292.6H172.2L85.12 162.96V292.6H67.76V127.4ZM100.52 213.92L163.52 308.28H194.32L257.6 213.64V308.28H305.76V111.72H267.12L178.64 242.76L90.72 111.72H52.36V308.28H100.52V213.92ZM121.8 133.56L182.56 224.56L263.76 104.72H312.76L339.92 133.56V342.44H279.44L250.6 315.28V304.92L225.4 342.44H188.44L160.16 315.28L134.68 277.2V342.44H74.2L45.36 315.28V104.72H94.08L121.8 133.56Z" fill="#202020"/>
<path d="M413.864 339.854C407.599 339.854 402.017 338.767 397.116 336.594C392.216 334.378 388.338 331.118 385.483 326.814C382.67 322.467 381.264 317.055 381.264 310.578C381.264 305.124 382.266 300.543 384.268 296.835C386.271 293.128 388.999 290.145 392.45 287.886C395.902 285.628 399.822 283.923 404.212 282.773C408.643 281.622 413.288 280.812 418.146 280.344C423.857 279.747 428.459 279.193 431.953 278.682C435.447 278.128 437.983 277.318 439.56 276.253C441.136 275.187 441.925 273.611 441.925 271.523V271.139C441.925 267.091 440.646 263.959 438.089 261.743C435.575 259.527 431.996 258.419 427.351 258.419C422.45 258.419 418.551 259.506 415.653 261.679C412.756 263.81 410.838 266.494 409.901 269.733L384.716 267.688C385.994 261.722 388.509 256.565 392.259 252.219C396.009 247.83 400.845 244.463 406.768 242.119C412.734 239.733 419.638 238.54 427.479 238.54C432.933 238.54 438.153 239.179 443.139 240.457C448.168 241.736 452.621 243.717 456.499 246.402C460.419 249.087 463.509 252.538 465.767 256.757C468.026 260.933 469.155 265.94 469.155 271.778V338H443.331V324.385H442.564C440.987 327.453 438.878 330.159 436.236 332.503C433.594 334.804 430.419 336.615 426.712 337.936C423.004 339.214 418.722 339.854 413.864 339.854ZM421.662 321.061C425.668 321.061 429.205 320.273 432.273 318.696C435.341 317.077 437.749 314.903 439.496 312.176C441.243 309.449 442.116 306.359 442.116 302.908V292.489C441.264 293.043 440.092 293.554 438.601 294.023C437.152 294.449 435.511 294.854 433.679 295.237C431.847 295.578 430.014 295.898 428.182 296.196C426.349 296.452 424.688 296.686 423.196 296.899C420 297.368 417.209 298.114 414.822 299.136C412.436 300.159 410.582 301.544 409.261 303.291C407.94 304.996 407.28 307.126 407.28 309.683C407.28 313.391 408.622 316.224 411.307 318.185C414.034 320.102 417.486 321.061 421.662 321.061ZM517.511 281.239V338H490.281V239.818H516.232V257.141H517.383C519.556 251.43 523.2 246.913 528.313 243.589C533.427 240.223 539.627 238.54 546.914 238.54C553.732 238.54 559.677 240.031 564.748 243.014C569.819 245.997 573.761 250.259 576.573 255.798C579.386 261.295 580.792 267.858 580.792 275.486V338H553.562V280.344C553.604 274.335 552.07 269.648 548.96 266.281C545.849 262.872 541.566 261.168 536.112 261.168C532.447 261.168 529.208 261.956 526.396 263.533C523.626 265.109 521.452 267.411 519.876 270.436C518.342 273.419 517.553 277.02 517.511 281.239ZM638.432 339.598C630.975 339.598 624.221 337.68 618.169 333.845C612.161 329.967 607.388 324.278 603.851 316.778C600.357 309.236 598.61 299.989 598.61 289.037C598.61 277.787 600.421 268.433 604.043 260.976C607.665 253.476 612.48 247.872 618.489 244.165C624.54 240.415 631.167 238.54 638.368 238.54C643.865 238.54 648.446 239.477 652.111 241.352C655.819 243.185 658.801 245.486 661.06 248.256C663.361 250.983 665.108 253.668 666.301 256.31H667.132V207.091H694.299V338H667.452V322.276H666.301C665.023 325.003 663.212 327.709 660.868 330.393C658.567 333.036 655.563 335.23 651.855 336.977C648.191 338.724 643.716 339.598 638.432 339.598ZM647.061 317.929C651.451 317.929 655.158 316.736 658.184 314.349C661.252 311.92 663.596 308.533 665.215 304.186C666.877 299.839 667.708 294.747 667.708 288.909C667.708 283.071 666.898 278 665.279 273.696C663.659 269.392 661.316 266.068 658.248 263.724C655.179 261.381 651.451 260.209 647.061 260.209C642.587 260.209 638.816 261.423 635.748 263.852C632.679 266.281 630.357 269.648 628.78 273.952C627.203 278.256 626.415 283.241 626.415 288.909C626.415 294.619 627.203 299.669 628.78 304.058C630.4 308.405 632.722 311.814 635.748 314.286C638.816 316.714 642.587 317.929 647.061 317.929ZM733.498 374.818C730.046 374.818 726.808 374.541 723.782 373.987C720.799 373.476 718.327 372.815 716.367 372.006L722.504 351.679C725.7 352.659 728.576 353.192 731.133 353.277C733.732 353.362 735.969 352.766 737.844 351.487C739.762 350.209 741.317 348.036 742.511 344.967L744.109 340.812L708.888 239.818H737.525L757.852 311.92H758.874L779.393 239.818H808.221L770.06 348.611C768.228 353.895 765.735 358.497 762.582 362.418C759.471 366.381 755.529 369.428 750.756 371.558C745.984 373.732 740.231 374.818 733.498 374.818ZM850.6 207.091V220.898C850.6 224.818 849.833 228.824 848.299 232.915C846.808 236.963 844.805 240.798 842.29 244.42C839.776 248 837.028 251.047 834.045 253.561L822.028 246.466C824.158 243.099 826.033 239.371 827.653 235.28C829.315 231.189 830.146 226.437 830.146 221.026V207.091H850.6ZM938.123 267.815L913.194 269.349C912.768 267.219 911.852 265.301 910.446 263.597C909.039 261.849 907.186 260.464 904.885 259.442C902.626 258.376 899.92 257.844 896.767 257.844C892.548 257.844 888.99 258.739 886.092 260.528C883.194 262.276 881.745 264.619 881.745 267.56C881.745 269.903 882.683 271.885 884.558 273.504C886.433 275.124 889.65 276.423 894.21 277.403L911.98 280.983C921.525 282.943 928.642 286.097 933.329 290.443C938.017 294.79 940.36 300.5 940.36 307.574C940.36 314.009 938.464 319.655 934.672 324.513C930.922 329.371 925.765 333.163 919.203 335.891C912.683 338.575 905.162 339.918 896.639 339.918C883.642 339.918 873.287 337.212 865.574 331.8C857.903 326.345 853.407 318.93 852.086 309.555L878.869 308.149C879.679 312.112 881.639 315.138 884.75 317.226C887.86 319.271 891.845 320.294 896.703 320.294C901.475 320.294 905.311 319.378 908.208 317.545C911.149 315.67 912.64 313.263 912.683 310.322C912.64 307.851 911.596 305.827 909.551 304.25C907.505 302.631 904.352 301.395 900.091 300.543L883.088 297.155C873.5 295.237 866.362 291.913 861.674 287.183C857.029 282.453 854.707 276.423 854.707 269.094C854.707 262.787 856.412 257.354 859.821 252.794C863.272 248.234 868.109 244.719 874.331 242.247C880.595 239.776 887.924 238.54 896.319 238.54C908.72 238.54 918.478 241.161 925.595 246.402C932.754 251.643 936.93 258.781 938.123 267.815ZM1029.15 338L991.689 207.091H1021.92L1043.59 298.05H1044.68L1068.58 207.091H1094.47L1118.31 298.241H1119.47L1141.13 207.091H1171.37L1133.91 338H1106.94L1082.01 252.411H1080.99L1056.12 338H1029.15ZM1219.87 339.918C1209.77 339.918 1201.08 337.872 1193.79 333.781C1186.54 329.648 1180.96 323.81 1177.04 316.267C1173.12 308.682 1171.16 299.712 1171.16 289.357C1171.16 279.257 1173.12 270.393 1177.04 262.766C1180.96 255.138 1186.48 249.193 1193.6 244.932C1200.76 240.67 1209.15 238.54 1218.78 238.54C1225.26 238.54 1231.29 239.584 1236.87 241.672C1242.5 243.717 1247.4 246.807 1251.57 250.94C1255.79 255.074 1259.07 260.273 1261.42 266.537C1263.76 272.759 1264.93 280.045 1264.93 288.398V295.876H1182.03V279.001H1239.3C1239.3 275.081 1238.45 271.608 1236.74 268.582C1235.04 265.557 1232.67 263.192 1229.65 261.487C1226.67 259.74 1223.19 258.866 1219.23 258.866C1215.1 258.866 1211.43 259.825 1208.24 261.743C1205.08 263.618 1202.61 266.153 1200.82 269.349C1199.03 272.503 1198.11 276.018 1198.07 279.896V295.94C1198.07 300.798 1198.97 304.996 1200.76 308.533C1202.59 312.07 1205.17 314.797 1208.49 316.714C1211.81 318.632 1215.76 319.591 1220.32 319.591C1223.34 319.591 1226.11 319.165 1228.63 318.312C1231.14 317.46 1233.29 316.182 1235.08 314.477C1236.87 312.773 1238.24 310.685 1239.17 308.213L1264.36 309.875C1263.08 315.926 1260.46 321.21 1256.5 325.727C1252.57 330.202 1247.5 333.696 1241.28 336.21C1235.1 338.682 1227.97 339.918 1219.87 339.918ZM1283.21 338V207.091H1310.44V256.31H1311.27C1312.47 253.668 1314.19 250.983 1316.45 248.256C1318.75 245.486 1321.74 243.185 1325.4 241.352C1329.11 239.477 1333.71 238.54 1339.21 238.54C1346.37 238.54 1352.97 240.415 1359.02 244.165C1365.07 247.872 1369.91 253.476 1373.53 260.976C1377.16 268.433 1378.97 277.787 1378.97 289.037C1378.97 299.989 1377.2 309.236 1373.66 316.778C1370.17 324.278 1365.39 329.967 1359.34 333.845C1353.33 337.68 1346.6 339.598 1339.14 339.598C1333.86 339.598 1329.36 338.724 1325.66 336.977C1321.99 335.23 1318.99 333.036 1316.64 330.393C1314.3 327.709 1312.51 325.003 1311.27 322.276H1310.06V338H1283.21ZM1309.87 288.909C1309.87 294.747 1310.68 299.839 1312.3 304.186C1313.92 308.533 1316.26 311.92 1319.33 314.349C1322.4 316.736 1326.13 317.929 1330.51 317.929C1334.95 317.929 1338.7 316.714 1341.76 314.286C1344.83 311.814 1347.16 308.405 1348.73 304.058C1350.35 299.669 1351.16 294.619 1351.16 288.909C1351.16 283.241 1350.37 278.256 1348.8 273.952C1347.22 269.648 1344.9 266.281 1341.83 263.852C1338.76 261.423 1334.99 260.209 1330.51 260.209C1326.08 260.209 1322.33 261.381 1319.26 263.724C1316.24 266.068 1313.92 269.392 1312.3 273.696C1310.68 278 1309.87 283.071 1309.87 288.909Z" fill="#202020"/>
</svg>
