<svg width="13" height="13" viewBox="0 0 13 13" fill="none" xmlns="http://www.w3.org/2000/svg">
<path d="M4.44345 10.5962C4.34716 10.5949 4.25484 10.5577 4.18461 10.4918C4.11639 10.4229 4.07812 10.3299 4.07812 10.233C4.07812 10.136 4.11639 10.043 4.18461 9.97412L7.56313 6.60015L4.18461 3.22617C4.12668 3.15559 4.09708 3.06598 4.10156 2.97478C4.10604 2.88358 4.14428 2.7973 4.20885 2.73273C4.27341 2.66817 4.35969 2.62992 4.45089 2.62544C4.5421 2.62096 4.6317 2.65057 4.70229 2.7085L8.3351 6.34131C8.40332 6.41019 8.44159 6.50321 8.44159 6.60015C8.44159 6.69709 8.40332 6.79011 8.3351 6.85899L4.70229 10.4918C4.63206 10.5577 4.53974 10.5949 4.44345 10.5962V10.5962Z" fill="#1B365D"/>
</svg>
