<svg width="226" height="276" viewBox="0 0 226 276" fill="none" xmlns="http://www.w3.org/2000/svg">
<path fill-rule="evenodd" clip-rule="evenodd" d="M226 28.3689V274.243C225.576 274.277 225.153 274.31 224.731 274.343C177.781 277.979 128.935 273.472 87.079 251.846C36.8276 225.89 -0.446314 172.171 0.601266 115.944C0.646387 113.352 0.777963 110.761 0.995724 108.171C4.80973 61.6782 39.4914 18.7412 82.8326 5.14856C94.5013 1.48901 106.807 -0.0495006 119.282 1.05187C131.024 2.09661 142.343 5.16521 153.547 8.87144L153.573 8.86327C158.732 10.5877 163.866 12.4485 169.003 14.3105C182.802 19.3116 196.625 24.3214 211.011 26.7201C215.982 27.549 220.982 28.0611 226 28.3689Z" fill="#202020"/>
</svg>
