<svg width="28" height="33" viewBox="0 0 28 33" fill="none" xmlns="http://www.w3.org/2000/svg">
<path d="M1.94179 3.36607C2.0267 1.86385 2.38554 1.21061 3.41459 0.686032C4.52183 0.121422 6.26816 0.384175 8.32307 1.42475C9.20816 1.87316 9.29829 1.88229 10.8494 1.68342C12.9112 1.41898 15.5655 1.41991 17.4685 1.68584C18.9076 1.88694 19.0021 1.87689 19.8893 1.42755C22.8062 -0.0495234 25.109 0.0471219 25.9429 1.68155C26.3591 2.49737 26.4364 4.61427 26.1137 6.36025C25.9347 7.3282 25.9537 7.44905 26.3848 8.08424C29.4177 12.5536 27.2323 19.7983 22.0353 22.5019C21.6376 22.7088 21.3025 22.8369 21.0293 22.9411C20.1906 23.2614 19.936 23.3587 20.2443 24.8327C20.3928 25.5418 20.5716 27.3046 20.6418 28.7504C20.7689 31.3637 20.767 31.382 20.3086 31.9151C19.6847 32.6404 18.7855 32.6526 18.1762 31.9442C17.7788 31.4822 17.7401 31.264 17.7401 29.4815C17.7401 26.8473 17.4513 25.0964 16.7691 23.5961C15.9578 21.8106 16.5592 21.1449 18.4145 20.7459C20.9933 20.1912 23.0074 18.5997 24.13 16.2297C25.1974 13.9769 25.3582 10.8637 23.4286 8.97027C22.8798 8.31813 22.8416 7.72745 23.2335 5.94628C23.3799 5.28057 23.5027 4.42173 23.5063 4.03756C23.5118 3.43086 23.4566 3.33925 23.084 3.33925C22.8482 3.33925 21.9472 3.68227 21.0821 4.10143L19.7014 4.77066C19.5758 4.83149 19.4354 4.85488 19.2968 4.83899C15.7859 4.43599 12.4498 4.42976 8.92169 4.84056C8.78262 4.85675 8.64156 4.83336 8.51559 4.77222L7.13557 4.10256C6.2704 3.68263 5.36948 3.33925 5.13374 3.33925C4.58868 3.33925 4.58048 3.74166 5.0773 6.1325C5.3808 7.59265 5.58502 7.91801 4.70768 9.08554C3.39261 10.8356 3.06412 13.0087 3.76933 15.292C4.65814 18.1693 6.83464 20.1131 9.89456 20.7617C11.7392 21.1526 12.2213 21.6628 11.5169 23.7779C10.9625 25.4425 10.6119 25.8715 9.8061 25.8715C8.72194 25.8715 8.04281 24.9323 8.41655 23.9496C8.58117 23.5164 8.5322 23.4702 7.51657 23.0998C4.41624 21.9694 2.04495 19.4359 0.960795 16.0951C0.122822 13.5132 0.491532 10.1526 1.83584 8.1213C2.29355 7.42969 2.30064 7.37103 2.08704 6.04703C1.96618 5.29752 1.90082 4.0912 1.94179 3.36607Z" fill="white"/>
</svg>
