<svg width="32" height="32" viewBox="0 0 32 32" fill="none" xmlns="http://www.w3.org/2000/svg">
<path fill-rule="evenodd" clip-rule="evenodd" d="M15.9998 5.66666C16.5521 5.66666 16.9998 6.11437 16.9998 6.66666V15H25.3332C25.8855 15 26.3332 15.4477 26.3332 16C26.3332 16.5523 25.8855 17 25.3332 17H16.9998V25.3333C16.9998 25.8856 16.5521 26.3333 15.9998 26.3333C15.4476 26.3333 14.9998 25.8856 14.9998 25.3333V17H6.6665C6.11422 17 5.6665 16.5523 5.6665 16C5.6665 15.4477 6.11422 15 6.6665 15H14.9998V6.66666C14.9998 6.11437 15.4476 5.66666 15.9998 5.66666Z" fill="#6E614C"/>
</svg>
