<svg width="607" height="580" viewBox="0 0 607 580" fill="none" xmlns="http://www.w3.org/2000/svg">
<path fill-rule="evenodd" clip-rule="evenodd" d="M606.042 0H0V572.574C41.679 577.808 78.839 581.301 115.886 577.354C165.377 572.097 214.708 553.58 274.298 508.23L274.516 508.064C310.725 471.223 319.824 430.132 328.65 390.27C333.4 368.816 338.072 347.719 346.848 327.832C365.492 285.53 397.849 252.267 434.867 224.095C437.793 221.868 440.744 219.672 443.719 217.508C461.442 204.619 480.04 192.813 498.614 181.623C500.221 180.655 501.831 179.688 503.443 178.72C516.402 170.937 529.45 163.1 541.439 153.976C549.098 148.147 556.317 141.805 562.768 134.648C578.67 117.103 589.293 95.3366 596.179 72.4697C597.695 67.4207 599.022 62.3162 600.207 57.2196C604.485 38.4214 606.363 19.2097 606.042 0Z" fill="#FFC702"/>
</svg>
